<?xml version="1.0" encoding="UTF-8"?>
<svg id="Layer_1" data-name="Layer 1" xmlns="http://www.w3.org/2000/svg" viewBox="0 0 1106.17 475.09">
  <defs>
    <style>
      .cls-1 {
        fill: #231f20;
        font-family: BMDoHyeon-OTF-KSCpc-EUC-H, 'BM Dohyeon';
        font-size: 74.97px;
        stroke: #fff;
        stroke-miterlimit: 10;
      }

      .cls-2 {
        fill: #435065;
      }

      .cls-3 {
        fill: #6f7172;
      }

      .cls-4 {
        fill: #58b99d;
      }
    </style>
  </defs>
  <path class="cls-2" d="m528.09,260.49c-.19,97.87-79.85,177.05-177.93,176.86-98.08-.19-177.43-79.69-177.23-177.55.19-97.87,79.85-177.05,177.93-176.86,73.96.14,140.09,46.02,165.99,115.15.39,1.04.76,2.08,1.13,3.13h0c1.64,4.63,3.08,9.33,4.33,14.12,3.85,14.74,5.79,29.91,5.78,45.15Z"/>
  <path class="cls-4" d="m329.75,140.12c-16.28-8.79-35.71-9.58-52.66-2.15-7.36,3.2-15.12,8.93-17.57,19.29,9.93-5.85,22.79,3.39,25.35,18.22l-.6.16c-1.35,10.27,1.66,21.45,7.5,27.82.88-5.82,4.34-10.94,9.41-13.93,4.29-2.81,9.03-4.86,12.3-9.69,3.88-5.73,4.86-14.11,6.41-21.75s4.46-15.85,9.86-17.98Z"/>
  <path class="cls-4" d="m274.14,227.52c-2.75,4.12-6.43,6.71-9.72,9.93-3.81,3.46-6.3,8.11-7.07,13.19-.42,3.59.23,7.23.14,10.86-.09,3.63-1.3,7.71-3.77,8.61-3.9,1.41-6.88-5.83-10.9-6.33-3.19-.4-6.06,4.61-5.14,8.95s5.26,6.26,7.76,3.43c2.25,3.78.67,10.62-2.72,11.78-.36,2.38-.72,4.75-1.06,7.13-8.56-5.98-17.21-12.05-24.49-20.8-8.1-9.65-13.12-21.5-14.42-34.01-.94-10.06.46-21.57-4.17-29.31-3.7-6.19-10.06-7.56-15.78-7.18-1.04.07-2.1.19-3.14.32,3.37-10.11,7.66-19.9,12.8-29.24,1.16-.5,2.25-1.17,3.21-1.99,5.32-4.51,7.69-13.64,12.01-19.95.28-.41.57-.8.86-1.19,4.42-5.76,10.34-8.72,16.06-11.48,12.66-6.13,25.69-12.35,39.06-11.5l-3.8.37c-4.44,12.41-8.88,24.82-13.33,37.23-.68,1.9-1.36,3.81-2.05,5.72-2.52,7.06-5.13,14.57-4.74,22.47.23,4.68,1.86,9.67,4.96,11.28,2.89,1.49,6.05-.34,8.84-2.14,1.18-.75,2.35-1.51,3.54-2.27,4.24-2.73,8.94-5.52,13.42-3.7,4.1,1.66,7.13,7.23,7.71,13.22.53,5.83-.9,11.67-4.05,16.6Z"/>
  <path class="cls-4" d="m299.37,312.24c-12.39-7.61-24.77-15.22-37.16-22.83l.21-.54c-7.7,2.93-10.9,16.59-9.63,27.76s5.59,21.16,7.77,32.04c2.94,14.9,1.83,30.31-3.21,44.63,16.29-18.24,30.7-38.06,43.03-59.16,1.72-2.66,3.03-5.56,3.89-8.61.91-3.25.59-6.72-.91-9.74-1.01-1.49-2.38-2.71-3.99-3.54Z"/>
  <path class="cls-4" d="m250.48,173.78c-1.45,3.12-1.68,6.67-.63,9.94,1.22,2.64,3.44,4.69,6.17,5.7l6.84,3.39c2.28,1.13,4.73,2.26,7.05,1.34,2.8-1.12,4.74-5.5,4.24-9.56-.53-4.33-3.27-7.3-5.8-9.84-3.54-3.55-7.07-7.09-10.61-10.64l-1.99,2.44c-2.16,2.1-3.94,4.55-5.27,7.24Z"/>
  <path class="cls-4" d="m491.4,220.04c3.08.72,6.16,1.45,9.24,2.17-.54,10.38-5.69,19.98-12.6,23.46-2.88,1.45-6.09,1.98-8.47,4.69-2.16,2.46-3.25,6.28-4.25,9.94-1.76,6.38-3.52,12.77-5.27,19.15-1.89,6.88-4.31,14.52-9.22,17-4.21,2.13-9.03-.48-12.27-4.85-3.24-4.37-5.21-10.25-7.13-15.98.12,6.24-2.79,12.37-6.91,14.54-4.13,2.17-9.16.21-11.92-4.64-1.99-3.48-2.81-8.07-4.76-11.6-1.95-3.53-6.03-5.55-8.15-2.24-1.4,2.2-1.22,5.57-1.92,8.36-.72,3.8-3.77,6.74-7.61,7.3-3.48-.08-6.77-1.58-9.11-4.15-6.08-6.21-10.04-14.18-11.31-22.77-.86-4.12-.75-8.38.32-12.45,1.22-3.86,4.17-6.83,7.1-6.1,1.93-4.06-1.88-9.46-5.3-8.98-3.44.48-6.13,4.15-8.95,6.98-2.81,2.82-6.74,4.88-9.57,2.07.13,2.14-1.5,3.97-3.64,4.11-.1,0-.2,0-.31,0-1.88-.54-3.63-1.46-5.13-2.72-6.49-4.03-14.72-1.36-19.33,6.27,2.88-12.23,7.1-26.26,15.95-29.14,3.62-1.18,7.56-.21,10.98-2.25,6.05-3.62,7.27-17.28,2.05-22.92.67,5.33.54,11.56-2.28,15.2-2.82,3.65-8.74,1.27-8.38-4.12-.21,1.98-1.99,3.42-3.98,3.21-1.15-.12-2.17-.79-2.75-1.79-1.88-2.85-1.72-7.52-.39-10.93,1.37-3.09,3.34-5.88,5.79-8.21,4.72-5.04,9.51-10.15,14.97-13.32,5.47-3.17,11.79-4.24,17.27-1.09,2.89,1.66,5.43,4.44,8.38,5.91,2.92,1.81,6.74.91,8.55-2h0s0,0,0,0c.03-.05.07-.11.1-.16,2.19-3.85,1.16-9.55,1.98-14.36,1.46-8.49,9.97-12.47,14.69-6.86-3.53-.9-7.17,3.26-7.61,8.31-.45,5.04,2.11,10.14,5.52,11.67,5.74,2.54,11.36-3.85,15.7-9.75,4.53-6.18,9.06-12.37,13.61-18.54.73-1.05,1.54-2.04,2.43-2.95,2.95-2.87,7.63-2.97,10.7-.22,4.59,3.74,6.74,11.4,10.51,16.67,5.46,7.66,13.64,9.52,21.24,11.01,5.67,1.1,11.35,2.21,17.02,3.32,3.78,7.03,7.09,14.3,9.88,21.77-10.41,4.74-19.24,12.36-25.45,21.95Z"/>
  <path class="cls-4" d="m509.73,339.29c-4.26,8.62-9.2,16.89-14.8,24.71-3.58-1.53-7.42,1.2-10.77,3.76-3.5,2.68-7.7,5.28-11.28,2.84-3.66-2.5-4.85-9.48-3.68-15.03,1.34-5.11,3.67-9.91,6.87-14.11,2.98-4.44,6.17-9.05,10.31-10.77,4.15-1.72,9.49.71,10.7,6.6l2.94-.1c-1.65-2.26-.78-6.94,1.43-7.76,2.55-.96,4.77,2.54,6.28,5.63.68,1.4,1.36,2.8,2.01,4.23Z"/>
  <path class="cls-4" d="m397.14,297.42c-6.32.4-11.32-7.37-14.65-15s-6.36-16.37-12.06-20.26c-3.26-2.22-6.97-2.53-10.51-3.6-4.07-1.02-7.39-3.94-8.92-7.84l-4.01-1.62c-5.61,2.8-10.74,6.45-15.22,10.83-5.12,5.42-8.3,12.37-9.07,19.78-.77,8.01,2.06,16.93,7.35,19.94,4.17,2.38,9.04.88,13.26,3.05,5.28,2.72,8.42,10.61,9.61,18.41,1.19,7.8.89,15.9,1.74,23.78s3.19,16.09,8.04,20.13c6.06,5.06,14.96.85,17.68-8.35,1.33-4.51,1.29-9.61,2.29-14.3,1.76-8.25,6.5-14.38,10.26-21.15s6.72-15.97,4.22-23.82Z"/>
  <path class="cls-4" d="m334.7,216.32c.59.54,1.14,1.12,1.65,1.74,1.07,1.84,1.03,4.11-.1,5.91,1.54-.09,2.97-.81,3.95-2,1.15-1.31,2.17-2.74,3.03-4.26.82-1.05,1.14-2.4.89-3.71-.3-.85-1-1.21-1.5-1.85-.69-1.25-1.15-2.61-1.38-4.01-.56-2.69-2.6-4.83-5.26-5.53l.32.06c-1.11.65-1.67,1.94-1.41,3.19.19,1.24.99,2.26.91,3.52-.11,1.81-1.93,2.67-2.04,4.48-.02.91.32,1.79.95,2.45Z"/>
  <path class="cls-4" d="m323.87,185.5h.03c.19-.18.37-.37.54-.58l-.57.58Z"/>
  <path class="cls-4" d="m325.76,194.01c1.55-1.35,2.21-3.46,1.72-5.45-.46-2.06-2.08-3.45-3.58-3.07-.88.89-2.17,1.27-3.4,1-.93-.24-1.94-.85-2.75-.15-.46.52-.78,1.15-.94,1.82-.3.91-.59,1.82-.89,2.73-.14.33-.18.69-.11,1.04.12.28.37.49.67.53l5.35,1.57c1.24.57,2.68.56,3.91-.03Z"/>
  <path class="cls-4" d="m460.49,311.56c-.82-1.35-1.65-2.7-2.47-4.04-.81-1.56-1.92-2.95-3.26-4.09-1.22-1.02-3.05-.86-4.07.36h0s-.04.05-.04.05l.1.77c2.21,2.36,3.71,5.29,4.35,8.46.19,1.38.12,2.8.29,4.19.04,1.3.58,2.52,1.53,3.41,1.3.87,2.82-.41,3.75-1.97.83-1.28,1.2-2.8,1.05-4.32-.21-1.02-.62-1.98-1.21-2.83Z"/>
  <path class="cls-4" d="m473.43,313.31c.16-1.26.05-2.54-.3-3.76-.06-1.65.38-3.28,1.26-4.68.87-1.32,1.54-2.77,1.96-4.29.18-.69.15-1.43-.09-2.1-.27-.61-.93-.89-1.31-.41l.81.52c-1.1-.2-2.22-.14-3.29.16-1.24.47-2.17,1.52-2.5,2.81-.13.99-.35,1.96-.65,2.91-.48.99-1.42,1.32-2.01,2.2-.82,1.57-.78,3.44.08,4.99.74,1.24,1.92,2.16,3.3,2.59.99.36,2.3.37,2.75-.93Z"/>
  <path class="cls-4" d="m496.47,320.25c.36.93.84,1.81,1.43,2.62,1.1,1.11,2.6.43,3.94.16,2.47-.39,4.96.61,6.48,2.59-1.05-5.24-4.59-9.65-9.49-11.81-3.14-1.08-6.44-1.6-9.76-1.52l-.57.14c1.44,4.2,5.98,4.1,7.96,7.82Z"/>
  <path class="cls-4" d="m398.87,328.83v.02s.17-.32.17-.32l-.17.3Z"/>
  <path class="cls-4" d="m395.37,335.58c-.76,1.38-1.42,2.82-1.96,4.3-.72,2.4-1.2,4.86-1.42,7.36-.18,1.42-.23,3.23.66,3.92.53.35,1.24.25,1.65-.22.49-.52.9-1.12,1.2-1.78,1.75-3.01,3.11-6.22,4.04-9.57.98-3.55.74-7.33-.66-10.74-1.17,2.24-2.34,4.49-3.5,6.73Z"/>
  <path class="cls-4" d="m361.64,155.68c1.14,1.11,2.82,1.44,4.29.84,1.49-.65,2.85-1.55,4.04-2.66.98-.72,1.81-1.63,2.45-2.66.71-1.25.89-2.73.5-4.11-.56-1.33-1.76-2.29-3.19-2.52-1.98-.59-3.96-1.17-5.94-1.76l1.43-1.29c-1.47-.79-3.11.68-4.03,2.49-.59,1.18-1,2.45-1.22,3.75-.63,2.76-.02,5.66,1.68,7.93Z"/>
  <path class="cls-4" d="m396.62,143.96c1.16,1.27,3.11,1.43,4.46.36,1.13-.85,1.85-2.14,1.97-3.55.14-1.55-.63-3.28-1.73-3.42l.25-1.46c-2.12-.38-4.73-.46-5.86,2.11-.78,2-.43,4.27.91,5.95Z"/>
  <ellipse class="cls-3" cx="252.52" cy="230.99" rx="13.22" ry="17.69"/>
  <ellipse class="cls-3" cx="492.03" cy="459.82" rx="11.83" ry="8.21" transform="translate(-101.28 141.21) rotate(-14.83)"/>
  <ellipse class="cls-3" cx="414.71" cy="461.25" rx="11.83" ry="8.21" transform="translate(-104.22 121.48) rotate(-14.83)"/>
  <ellipse class="cls-3" cx="505.76" cy="395.64" rx="11.83" ry="8.21" transform="translate(-84.4 142.59) rotate(-14.83)"/>
  <ellipse class="cls-3" cx="529.76" cy="368.88" rx="5.2" ry="7.46" transform="translate(-41.59 68.41) rotate(-7.11)"/>
  <ellipse class="cls-3" cx="535.53" cy="320.45" rx="5.2" ry="7.46" transform="translate(-35.55 68.76) rotate(-7.11)"/>
  <ellipse class="cls-3" cx="457.6" cy="413.55" rx="5.2" ry="7.46" transform="translate(-47.67 59.83) rotate(-7.11)"/>
  <ellipse class="cls-3" cx="496.69" cy="427.67" rx="5.2" ry="7.46" transform="translate(-49.12 64.77) rotate(-7.11)"/>
  <ellipse class="cls-3" cx="449.23" cy="467.66" rx="5.2" ry="7.46" transform="translate(-54.43 59.2) rotate(-7.11)"/>
  <ellipse class="cls-3" cx="107.72" cy="395.03" rx="11.83" ry="8.21" transform="translate(-97.5 40.72) rotate(-14.83)"/>
  <ellipse class="cls-3" cx="30.4" cy="396.46" rx="11.83" ry="8.21" transform="translate(-100.44 20.98) rotate(-14.83)"/>
  <ellipse class="cls-3" cx="121.46" cy="330.84" rx="11.83" ry="8.21" transform="translate(-80.62 42.09) rotate(-14.83)"/>
  <ellipse class="cls-3" cx="145.45" cy="304.09" rx="5.2" ry="7.46" transform="translate(-36.52 20.34) rotate(-7.11)"/>
  <ellipse class="cls-3" cx="151.23" cy="255.66" rx="5.2" ry="7.46" transform="translate(-30.48 20.69) rotate(-7.11)"/>
  <ellipse class="cls-3" cx="73.29" cy="348.76" rx="5.2" ry="7.46" transform="translate(-42.61 11.75) rotate(-7.11)"/>
  <ellipse class="cls-3" cx="112.38" cy="362.88" rx="5.2" ry="7.46" transform="translate(-44.05 16.7) rotate(-7.11)"/>
  <ellipse class="cls-3" cx="64.92" cy="402.87" rx="5.2" ry="7.46" transform="translate(-49.37 11.13) rotate(-7.11)"/>
  <ellipse class="cls-3" cx="577.45" cy="98.37" rx="11.83" ry="8.21" transform="translate(-5.95 151.04) rotate(-14.83)"/>
  <ellipse class="cls-3" cx="500.13" cy="99.8" rx="11.83" ry="8.21" transform="translate(-8.89 131.3) rotate(-14.83)"/>
  <ellipse class="cls-3" cx="591.19" cy="34.18" rx="11.83" ry="8.21" transform="translate(10.94 152.42) rotate(-14.83)"/>
  <ellipse class="cls-3" cx="615.19" cy="7.43" rx="5.2" ry="7.46" transform="translate(3.81 76.21) rotate(-7.11)"/>
  <ellipse class="cls-3" cx="543.02" cy="52.1" rx="5.2" ry="7.46" transform="translate(-2.27 67.62) rotate(-7.11)"/>
  <ellipse class="cls-3" cx="582.11" cy="66.22" rx="5.2" ry="7.46" transform="translate(-3.72 72.57) rotate(-7.11)"/>
  <ellipse class="cls-3" cx="534.65" cy="106.21" rx="5.2" ry="7.46" transform="translate(-9.03 67) rotate(-7.11)"/>
  <path class="cls-2" d="m86.6,413.94c-12.65,0-20.87-3.14-24.51-9.37-7.18-12.3,4.84-33.87,35.73-64.12l2.59,2.64c-28.69,28.1-41.16,49.28-35.12,59.63,3.82,6.54,15.2,8.89,32.9,6.78,17.57-2.09,40.87-8.33,69.22-18.55,58.38-21.03,131.63-56.49,206.25-99.87,74.62-43.37,141.67-89.46,188.8-129.77,9.05-7.74,17.27-15.19,24.42-22.14,9.39-8.9,18.05-18.53,25.9-28.8,10.57-14.32,14.14-25.35,10.32-31.9-6.38-10.93-33.19-9.9-75.5,2.9l-1.07-3.54c45.39-13.73,72.23-14.15,79.78-1.22,4.69,8.03,1.14,20.13-10.54,35.95-7.97,10.44-16.76,20.22-26.29,29.26-7.21,7-15.48,14.5-24.59,22.3-47.3,40.45-114.54,86.67-189.35,130.15-74.81,43.48-148.27,79.05-206.86,100.15-28.62,10.31-52.19,16.61-70.04,18.74-3.99.5-8,.76-12.02.78Z"/>
  <text class="cls-1" transform="translate(591.19 202.61)"><tspan x="0" y="0">International </tspan><tspan x="0" y="89.97">Trade </tspan><tspan x="0" y="179.93">Analysis</tspan></text>
</svg>